<svg height="512" viewBox="0 0 60 60" width="512" xmlns="http://www.w3.org/2000/svg"><g id="025---Social-Housing"><path id="Shape" d="m23 55h-1c-.5522847 0-1 .4477153-1 1s.4477153 1 1 1h1c.5522847 0 1-.4477153 1-1s-.4477153-1-1-1z"/><path id="Shape" d="m56.81 30.213c-1.2760008-.0009598-2.4294137.7597182-2.931 1.933l-2.158 5.035c-.2282424-.1486692-.4695766-.2761981-.721-.381v-19.1c3.52 2.638 3.525 2.749 4 2.749.4304304 0 .8125693-.2754301.9486833-.6837722.136114-.4083422-.004339-.8579696-.3486833-1.1162278l-6.6-4.949v-8.7c0-1.1045695-.8954305-2-2-2h-5c-1.1045695 0-2 .8954305-2 2v1.955l-8.684-6.51c-.7757966-.58850365-1.8479679-.5905451-2.626-.005-25.344 19.177 2.489-1.858-24.29 18.21-.44182777.3313709-.5313708.9581722-.19999996 1.4s.95817216.5313708 1.39999996.2l3.4-2.55v19.117c-.24864001.1054569-.48783908.2319146-.715.378l-2.163-5.049c-.45997943-1.0419651-1.44089973-1.7593845-2.57325771-1.8820132-1.13235799-.1226286-2.24412153.3681636-2.91650005 1.2875-.67237853.9193365-.80322173 2.1275481-.34324224 3.1695132l3.919 8.621c1.061 2.336 1.917 2.88 8.334 9.3-.3466183.3673784-.5404048.8529172-.542 1.358v4c0 1.1045695.8954305 2 2 2h11c1.1045695 0 2-.8954305 2-2v-4c0-1.1045695-.8954305-2-2-2 0-2.463.116-4.452-1.26-7h12.52c-1.413 2.616-1.26 4.832-1.26 7-1.1045695 0-2 .8954305-2 2v4c0 1.1045695.8954305 2 2 2h11c1.1045695 0 2-.8954305 2-2v-4c-.0010549-.5059699-.1952849-.9924393-.543-1.36l6.164-6.164c1.829-1.829 2.008-2.778 6.091-11.755.4483028-.986823.3646844-2.1337913-.2220038-3.0451595-.5866883-.9113682-1.5961167-1.4623513-2.6799962-1.4628405zm-14.81-25.213h5v7.2l-5-3.745zm-31 11.2c23.722-17.782 17.983-13.48 18.9-14.165.171-.127-.807-.76 17.348 12.85.1031465.1277307.2364975.227744.388.291l1.364 1.024v20.232c-1.0082651.0345196-1.9761246.4047698-2.75 1.052-5.6 4.72-6.041 2.921-8.525 5.516h-15.45c-2.463-2.573-2.941-.814-8.525-5.516-.7738358-.6462308-1.7422654-1.0138819-2.75-1.044zm14 41.8h-11v-4h11zm-10.27-6c-7.434-7.434-7.838-7.584-8.7-9.485l-3.921-8.621c-.17116061-.3674462-.13975153-.7973343.083-1.136.23797194-.3694721.66047439-.5773861 1.09840315-.5405255.43792877.0368605.81973266.3124732.99259685.7165255 3.617 8.443 2.3 6.481 9.327 13.511.2510745.2599566.6228779.3642126.9725073.2726972.3496295-.0915155.6226744-.3645604.7141899-.7141899.0915154-.3496294-.0127406-.7214328-.2726972-.9725073-4.476-4.476-5.027-4.911-5.8-6.07.9603362-.7389791 2.3038309-.7165806 3.239.054 6.07 5.109 6.679 3.193 8.785 5.823 1.952 2.444 1.752 5.049 1.752 7.162zm31.27 6h-11v-4h11zm11.892-24.107c-4.168 9.177-4.212 9.7-5.685 11.169l-6.938 6.938h-8.269c0-2.4-.159-4.771 1.753-7.162 2.133-2.664 2.659-.666 8.785-5.824.9354549-.7694566 2.27832-.7910221 3.238-.052-.756 1.134-1.132 1.4-5.8 6.069-.3789722.3923789-.3735524 1.0160848.0121814 1.4018186s1.0094397.3911536 1.4018186.0121814c7.074-7.073 5.712-5.076 9.327-13.512.1733981-.4038709.5554518-.679143.993443-.7157819.4379911-.0366388.8604691.1713326 1.098557.5407819.2218198.338612.2531996.7677205.083 1.135z"/><path id="Shape" d="m38 55h-1c-.5522847 0-1 .4477153-1 1s.4477153 1 1 1h1c.5522847 0 1-.4477153 1-1s-.4477153-1-1-1z"/><path id="Shape" d="m17 28.816v8.184c.0004377 1.1829497.6978075 2.2545782 1.7792195 2.7340762 1.081412.4794981 2.3438054.2768287 3.2207805-.5170762.8764021.7957968 2.1397859.9996035 3.2219716.5197624 1.0821856-.4798411 1.7793775-1.552967 1.7780284-2.7367624v-8.184c1.0332028.3808451 2.1927532.148935 3-.6.5193586.4703181 1.1878321.7425936 1.888.769l-1.059 2.116c-.3121783.620383-.2801699 1.3583034.0845549 1.9493247s1.0099455.9505226 1.7044451.9496753h.382v3c.0004377 1.1829497.6978075 2.2545782 1.7792195 2.7340762 1.081412.4794981 2.3438054.2768287 3.2207805-.5170762.8764021.7957968 2.1397859.9996035 3.2219716.5197624 1.0821856-.4798411 1.7793775-1.552967 1.7780284-2.7367624v-3c.8200129.1171186 1.63326-.253391 2.083-.949.3669035-.5888676.4002563-1.3264201.088-1.946l-1.059-2.116c1.608704-.0600931 2.8832193-1.3791811 2.888-2.989v-4c0-2.7614237-2.2385763-5-5-5h-.556c.9782456-1.6755552.6086477-3.8120118-.8756286-5.0615612-1.4842762-1.2495494-3.6524666-1.2495494-5.1367428 0-1.4842763 1.2495494-1.8538742 3.386006-.8756286 5.0615612h-.556c-1.58013.0046678-3.0643578.7586555-4 2.032-.9267199-1.2838163-2.416675-2.0407135-4-2.032h-.556c.9782456-1.6755552.6086477-3.8120118-.8756286-5.0615612-1.4842762-1.2495494-3.6524666-1.2495494-5.1367428 0-1.4842763 1.2495494-1.8538742 3.386006-.8756286 5.0615612h-.556c-2.7600532.0033061-4.9966939 2.2399468-5 5v4c-.001963.9739965.47108 1.8877796 1.2675112 2.4484671.7964311.5606875 1.8162128.6978531 2.7324888.3675329zm19 9.184c-.5504721-.0043518-.9956482-.4495279-1-1v-3h2v3c0 .5522847-.4477153 1-1 1zm5-1c-.003293.4042387-.2496464.7667342-.6242868.9186036-.3746405.1518695-.8038692.0632373-1.0877132-.2246036-.1865985-.1823963-.2906276-.4330776-.288-.694v-3h2zm-5-22c0-1.1045695.8954305-2 2-2s2 .8954305 2 2-.8954305 2-2 2-2-.8954305-2-2zm-2 4h8c1.6568542 0 3 1.3431458 3 3v4c0 .5522847-.4477153 1-1 1s-1-.4477153-1-1v-4c0-.5522847-.4477153-1-1-1s-1 .4477153-1 1c0 5.078-.028 5.147.1 5.417.136.293-.568-1.123 2.285 4.583h-10.767c2.322-4.644 2.367-4.641 2.376-4.97.006-.297.006-3.187.006-5.03 0-.5522847-.4477153-1-1-1s-1 .4477153-1 1v4c0 .5522847-.4477153 1-1 1s-1-.4477153-1-1v-4c0-1.6568542 1.3431458-3 3-3zm-14-4c0-1.1045695.8954305-2 2-2s2 .8954305 2 2-.8954305 2-2 2-2-.8954305-2-2zm-5 7c0-1.6568542 1.3431458-3 3-3h8c1.6568542 0 3 1.3431458 3 3v4c0 .5522847-.4477153 1-1 1s-1-.4477153-1-1v-4c0-.5522847-.4477153-1-1-1s-1 .4477153-1 1v15c-.003293.4042387-.2496464.7667342-.6242868.9186036-.3746405.1518695-.8038692.0632373-1.0877132-.2246036-.1865985-.1823963-.2906276-.4330776-.288-.694v-8c0-.5522847-.4477153-1-1-1s-1 .4477153-1 1v8c0 .5522847-.4477153 1-1 1s-1-.4477153-1-1v-15c0-.5522847-.4477153-1-1-1s-1 .4477153-1 1v4c0 .5522847-.4477153 1-1 1s-1-.4477153-1-1z"/></g></svg>